<svg xmlns="http://www.w3.org/2000/svg" xmlns:xlink="http://www.w3.org/1999/xlink" width="150" height="32" viewBox="0 0 150 32">
    <defs>
        <path id="jjsh2expia" d="M0 31.942L150 31.942 150 0 0 0z"/>
    </defs>
    <g fill="none" fill-rule="evenodd">
        <g>
            <g>
                <g transform="translate(-30 -19) translate(0 -6) translate(30 25)">
                    <path fill="#555" d="M43.472 17.596c0 3.504 1.625 6.487 5.484 6.487 3.022 0 5.015-1.904 5.028-4.291h1.015v.038c0 2.806-2.374 5.193-6.043 5.193-4.583 0-6.525-3.34-6.525-7.541v-2.933c0-4.19 2.031-7.58 6.475-7.58 3.846 0 5.979 2.73 5.979 5.27v.038h-1.016c-.025-2.057-1.802-4.355-4.963-4.355-3.746 0-5.434 2.97-5.434 6.513v3.16zM59.618 17.418v1.65c0 3.276 1.816 5.015 4.343 5.015 2.487 0 4.328-1.7 4.328-5.015v-1.65c0-3.275-1.84-5.052-4.342-5.052-2.5 0-4.329 1.751-4.329 5.052m9.7-.102v1.867c0 3.72-2.26 5.84-5.37 5.84-3.11 0-5.346-2.12-5.346-5.84v-1.867c0-3.745 2.21-5.877 5.346-5.877 3.084 0 5.37 2.183 5.37 5.877"/>
                    <mask id="yw6xhkkfvb" fill="#fff">
                        <use xlink:href="#jjsh2expia"/>
                    </mask>
                    <path fill="#555" d="M73.645 25.022h1.016V11.883h-1.016v13.139zm.508-17.506c.507 0 .914.406.914.914s-.407.901-.914.901c-.508 0-.902-.393-.902-.901s.394-.914.902-.914zM79.597 11.883h1.017v2.438h.05c.431-1.245 1.778-2.654 4.227-2.654 2.641 0 4.57 1.69 4.57 4.761v8.594h-1.028v-8.467c0-2.285-1.346-3.936-3.694-3.936-2.755 0-4.126 2.16-4.126 4.393v8.01h-1.016V11.883z" mask="url(#yw6xhkkfvb)"/>
                    <path fill="#303030" d="M94.766 20.059c.165 1.714 1.6 3.237 4.456 3.237 2.514 0 4.164-1.244 4.164-3.237 0-1.562-.965-2.412-3.009-2.945l-2.996-.8c-2.056-.546-3.999-1.841-3.999-4.481 0-3.174 2.82-4.913 5.878-4.913 2.907 0 5.801 1.536 5.865 4.824h-1.904c-.152-1.701-1.434-3.098-3.999-3.098-2.272 0-3.91 1.105-3.91 3.06 0 1.358.825 2.297 2.564 2.754l2.933.8c2.73.737 4.52 1.943 4.52 4.672 0 3.35-2.832 5.09-6.348 5.09-4.494 0-6.069-2.78-6.132-4.963h1.917zM109.828 8.265h1.865v3.34h2.718v1.586h-2.718v8.188c0 1.638.534 2.044 2.222 2.044.228 0 .42 0 .61-.026v1.537c-.19.038-.636.088-1.08.088-3.033 0-3.617-1.193-3.617-3.757v-13zM126.342 20.376v-1.638h-3.555c-1.942 0-2.767.927-2.767 2.222 0 1.65 1.358 2.45 2.856 2.45 1.98 0 3.466-1.244 3.466-3.034m-3.91 4.646c-2.577 0-4.342-1.587-4.342-4.024 0-2.298 1.6-3.77 4.634-3.783h3.618V15.78c0-1.866-1.092-2.869-2.983-2.869-1.83 0-2.831.902-2.984 2.311h-1.764c.152-2.31 1.739-3.923 4.824-3.923 2.767 0 4.773 1.536 4.773 4.266v9.242h-1.815V23.08h-.051c-.635 1.066-1.88 1.942-3.91 1.942M132.263 8.265h1.867v3.34h2.716v1.586h-2.716v8.188c0 1.638.532 2.044 2.221 2.044.228 0 .418 0 .61-.026v1.537c-.192.038-.636.088-1.08.088-3.034 0-3.618-1.193-3.618-3.757v-13zM145.036 11.3c3.136 0 4.634 1.84 4.634 3.922h-1.765c-.063-1.04-.736-2.323-2.945-2.323-1.663 0-2.894.723-2.894 2.145 0 1.536 1.688 1.904 3.301 2.222 2.475.457 4.633 1.08 4.633 3.694 0 2.628-2.146 4.062-5.167 4.062-2.907 0-4.862-1.46-4.862-3.745h1.828c.177 1.22 1.244 2.146 3.186 2.146 2.12 0 3.161-.99 3.161-2.247 0-1.574-1.447-1.879-3.402-2.285-2.5-.546-4.519-1.27-4.519-3.644 0-2.729 2.285-3.948 4.811-3.948" mask="url(#yw6xhkkfvb)"/>
                    <path fill="#FFB347" d="M7.461 23.496l-3.28 3.28C1.483 23.843 0 20.007 0 15.967c0-4.288 1.65-8.3 4.647-11.297C6.454 2.863 8.693 1.502 11.13.732l1.013 4.55c-1.58.563-3.035 1.482-4.224 2.67-2.073 2.073-3.249 4.832-3.312 7.77-.062 2.878.952 5.636 2.855 7.774" mask="url(#yw6xhkkfvb)"/>
                    <path fill="#FF9332" d="M15.936 15.962L12.467.372c2.584-.573 5.307-.483 7.88.263 2.61.758 5.006 2.174 6.928 4.095 1.967 1.967 3.386 4.423 4.104 7.1.663 2.48.72 5.112.16 7.616l-15.603-3.484z" mask="url(#yw6xhkkfvb)"/>
                    <path fill="#EA5237" d="M23.918 29.776c-3.713 2.143-8.013 2.72-12.107 1.624-2.478-.665-4.786-1.933-6.675-3.668l3.281-3.281c2.071 1.839 4.74 2.85 7.52 2.848 3.024-.001 5.87-1.18 8.008-3.32 1.187-1.186 2.105-2.64 2.666-4.216l4.57 1.019c-1.198 3.788-3.774 6.979-7.263 8.994" mask="url(#yw6xhkkfvb)"/>
                </g>
            </g>
        </g>
    </g>
</svg>
